<svg width="112" height="20" viewBox="0 0 112 20" fill="none" xmlns="http://www.w3.org/2000/svg">
<path fill-rule="evenodd" clip-rule="evenodd" d="M5.55556 0C2.48731 0 0 2.48731 0 5.55556V14.4444C0 17.5127 2.48731 20 5.55556 20C8.6238 20 11.1111 17.5127 11.1111 14.4444V11.1111H14.4444C17.5127 11.1111 20 8.6238 20 5.55556C20 2.48731 17.5127 0 14.4444 0H5.55556ZM5.55556 2.22222C3.71461 2.22222 2.22222 3.71461 2.22222 5.55556C2.22222 7.3965 3.71461 8.88889 5.55556 8.88889H8.88889V5.55556C8.88889 3.71461 7.3965 2.22222 5.55556 2.22222ZM11.1111 8.88889V5.55556C11.1111 4.30488 10.6978 3.15073 10.0004 2.22222H14.4444C16.2854 2.22222 17.7778 3.71461 17.7778 5.55556C17.7778 7.3965 16.2854 8.88889 14.4444 8.88889H11.1111ZM8.88889 11.1111H5.55556C4.30488 11.1111 3.15073 10.6978 2.22222 10.0004V14.4444C2.22222 16.2854 3.71461 17.7778 5.55556 17.7778C7.3965 17.7778 8.88889 16.2854 8.88889 14.4444V11.1111Z" fill="#0FBBC1"/>
<path d="M32.31 10.81C32.8033 10.81 33.2333 10.75 33.6 10.63C33.9667 10.5033 34.27 10.3267 34.51 10.1C34.7567 9.86667 34.94 9.58667 35.06 9.26C35.18 8.92667 35.24 8.55667 35.24 8.15C35.24 7.76333 35.18 7.41333 35.06 7.1C34.94 6.78667 34.76 6.52 34.52 6.3C34.28 6.08 33.9767 5.91333 33.61 5.8C33.2433 5.68 32.81 5.62 32.31 5.62H30.3V10.81H32.31ZM32.31 3.54C33.2767 3.54 34.1133 3.65333 34.82 3.88C35.5267 4.10667 36.11 4.42333 36.57 4.83C37.03 5.23667 37.37 5.72333 37.59 6.29C37.8167 6.85667 37.93 7.47667 37.93 8.15C37.93 8.85 37.8133 9.49333 37.58 10.08C37.3467 10.66 36.9967 11.16 36.53 11.58C36.0633 12 35.4767 12.3267 34.77 12.56C34.07 12.7933 33.25 12.91 32.31 12.91H30.3V18H27.61V3.54H32.31ZM43.1238 7.74V18H40.6438V7.74H43.1238ZM43.4638 4.75C43.4638 4.96333 43.4204 5.16333 43.3338 5.35C43.2471 5.53667 43.1304 5.7 42.9838 5.84C42.8438 5.98 42.6771 6.09333 42.4838 6.18C42.2904 6.26 42.0838 6.3 41.8638 6.3C41.6504 6.3 41.4471 6.26 41.2538 6.18C41.0671 6.09333 40.9038 5.98 40.7638 5.84C40.6238 5.7 40.5104 5.53667 40.4238 5.35C40.3438 5.16333 40.3038 4.96333 40.3038 4.75C40.3038 4.53 40.3438 4.32333 40.4238 4.13C40.5104 3.93667 40.6238 3.77 40.7638 3.63C40.9038 3.49 41.0671 3.38 41.2538 3.3C41.4471 3.21333 41.6504 3.17 41.8638 3.17C42.0838 3.17 42.2904 3.21333 42.4838 3.3C42.6771 3.38 42.8438 3.49 42.9838 3.63C43.1304 3.77 43.2471 3.93667 43.3338 4.13C43.4204 4.32333 43.4638 4.53 43.4638 4.75ZM48.9519 9C49.1585 8.79333 49.3752 8.60333 49.6019 8.43C49.8352 8.25 50.0785 8.1 50.3319 7.98C50.5919 7.85333 50.8685 7.75667 51.1619 7.69C51.4552 7.61667 51.7752 7.58 52.1219 7.58C52.6819 7.58 53.1785 7.67667 53.6119 7.87C54.0452 8.05667 54.4052 8.32333 54.6919 8.67C54.9852 9.01 55.2052 9.42 55.3519 9.9C55.5052 10.3733 55.5819 10.8967 55.5819 11.47V18H53.1119V11.47C53.1119 10.8433 52.9685 10.36 52.6819 10.02C52.3952 9.67333 51.9585 9.5 51.3719 9.5C50.9452 9.5 50.5452 9.59667 50.1719 9.79C49.7985 9.98333 49.4452 10.2467 49.1119 10.58V18H46.6419V7.74H48.1519C48.4719 7.74 48.6819 7.89 48.7819 8.19L48.9519 9ZM65.1909 9.74C65.1243 9.84667 65.0543 9.92333 64.9809 9.97C64.9076 10.01 64.8143 10.03 64.7009 10.03C64.5809 10.03 64.4509 9.99667 64.3109 9.93C64.1776 9.86333 64.0209 9.79 63.8409 9.71C63.6609 9.62333 63.4543 9.54667 63.2209 9.48C62.9943 9.41333 62.7243 9.38 62.4109 9.38C61.9243 9.38 61.5409 9.48333 61.2609 9.69C60.9876 9.89667 60.8509 10.1667 60.8509 10.5C60.8509 10.72 60.9209 10.9067 61.0609 11.06C61.2076 11.2067 61.3976 11.3367 61.6309 11.45C61.8709 11.5633 62.1409 11.6667 62.4409 11.76C62.7409 11.8467 63.0443 11.9433 63.3509 12.05C63.6643 12.1567 63.9709 12.28 64.2709 12.42C64.5709 12.5533 64.8376 12.7267 65.0709 12.94C65.3109 13.1467 65.5009 13.3967 65.6409 13.69C65.7876 13.9833 65.8609 14.3367 65.8609 14.75C65.8609 15.2433 65.7709 15.7 65.5909 16.12C65.4176 16.5333 65.1576 16.8933 64.8109 17.2C64.4643 17.5 64.0343 17.7367 63.5209 17.91C63.0143 18.0767 62.4276 18.16 61.7609 18.16C61.4076 18.16 61.0609 18.1267 60.7209 18.06C60.3876 18 60.0643 17.9133 59.7509 17.8C59.4443 17.6867 59.1576 17.5533 58.8909 17.4C58.6309 17.2467 58.4009 17.08 58.2009 16.9L58.7709 15.96C58.8443 15.8467 58.9309 15.76 59.0309 15.7C59.1309 15.64 59.2576 15.61 59.4109 15.61C59.5643 15.61 59.7076 15.6533 59.8409 15.74C59.9809 15.8267 60.1409 15.92 60.3209 16.02C60.5009 16.12 60.7109 16.2133 60.9509 16.3C61.1976 16.3867 61.5076 16.43 61.8809 16.43C62.1743 16.43 62.4243 16.3967 62.6309 16.33C62.8443 16.2567 63.0176 16.1633 63.1509 16.05C63.2909 15.9367 63.3909 15.8067 63.4509 15.66C63.5176 15.5067 63.5509 15.35 63.5509 15.19C63.5509 14.95 63.4776 14.7533 63.3309 14.6C63.1909 14.4467 63.0009 14.3133 62.7609 14.2C62.5276 14.0867 62.2576 13.9867 61.9509 13.9C61.6509 13.8067 61.3409 13.7067 61.0209 13.6C60.7076 13.4933 60.3976 13.37 60.0909 13.23C59.7909 13.0833 59.5209 12.9 59.2809 12.68C59.0476 12.46 58.8576 12.19 58.7109 11.87C58.5709 11.55 58.5009 11.1633 58.5009 10.71C58.5009 10.29 58.5843 9.89 58.7509 9.51C58.9176 9.13 59.1609 8.8 59.4809 8.52C59.8076 8.23333 60.2109 8.00667 60.6909 7.84C61.1776 7.66667 61.7376 7.58 62.3709 7.58C63.0776 7.58 63.7209 7.69667 64.3009 7.93C64.8809 8.16333 65.3643 8.47 65.7509 8.85L65.1909 9.74ZM71.28 7.74V18H68.8V7.74H71.28ZM71.62 4.75C71.62 4.96333 71.5767 5.16333 71.49 5.35C71.4033 5.53667 71.2867 5.7 71.14 5.84C71 5.98 70.8333 6.09333 70.64 6.18C70.4467 6.26 70.24 6.3 70.02 6.3C69.8067 6.3 69.6033 6.26 69.41 6.18C69.2233 6.09333 69.06 5.98 68.92 5.84C68.78 5.7 68.6667 5.53667 68.58 5.35C68.5 5.16333 68.46 4.96333 68.46 4.75C68.46 4.53 68.5 4.32333 68.58 4.13C68.6667 3.93667 68.78 3.77 68.92 3.63C69.06 3.49 69.2233 3.38 69.41 3.3C69.6033 3.21333 69.8067 3.17 70.02 3.17C70.24 3.17 70.4467 3.21333 70.64 3.3C70.8333 3.38 71 3.49 71.14 3.63C71.2867 3.77 71.4033 3.93667 71.49 4.13C71.5767 4.32333 71.62 4.53 71.62 4.75ZM77.2981 3.14V18H74.8281V3.14H77.2981ZM86.1791 13.62C85.4657 13.6533 84.8657 13.7167 84.3791 13.81C83.8924 13.8967 83.5024 14.01 83.2091 14.15C82.9157 14.29 82.7057 14.4533 82.5791 14.64C82.4524 14.8267 82.3891 15.03 82.3891 15.25C82.3891 15.6833 82.5157 15.9933 82.7691 16.18C83.0291 16.3667 83.3657 16.46 83.7791 16.46C84.2857 16.46 84.7224 16.37 85.0891 16.19C85.4624 16.0033 85.8257 15.7233 86.1791 15.35V13.62ZM80.5191 9.17C81.6991 8.09 83.1191 7.55 84.7791 7.55C85.3791 7.55 85.9157 7.65 86.3891 7.85C86.8624 8.04333 87.2624 8.31667 87.5891 8.67C87.9157 9.01667 88.1624 9.43333 88.3291 9.92C88.5024 10.4067 88.5891 10.94 88.5891 11.52V18H87.4691C87.2357 18 87.0557 17.9667 86.9291 17.9C86.8024 17.8267 86.7024 17.6833 86.6291 17.47L86.4091 16.73C86.1491 16.9633 85.8957 17.17 85.6491 17.35C85.4024 17.5233 85.1457 17.67 84.8791 17.79C84.6124 17.91 84.3257 18 84.0191 18.06C83.7191 18.1267 83.3857 18.16 83.0191 18.16C82.5857 18.16 82.1857 18.1033 81.8191 17.99C81.4524 17.87 81.1357 17.6933 80.8691 17.46C80.6024 17.2267 80.3957 16.9367 80.2491 16.59C80.1024 16.2433 80.0291 15.84 80.0291 15.38C80.0291 15.12 80.0724 14.8633 80.1591 14.61C80.2457 14.35 80.3857 14.1033 80.5791 13.87C80.7791 13.6367 81.0357 13.4167 81.3491 13.21C81.6624 13.0033 82.0457 12.8233 82.4991 12.67C82.9591 12.5167 83.4924 12.3933 84.0991 12.3C84.7057 12.2 85.3991 12.14 86.1791 12.12V11.52C86.1791 10.8333 86.0324 10.3267 85.7391 10C85.4457 9.66667 85.0224 9.5 84.4691 9.5C84.0691 9.5 83.7357 9.54667 83.4691 9.64C83.2091 9.73333 82.9791 9.84 82.7791 9.96C82.5791 10.0733 82.3957 10.1767 82.2291 10.27C82.0691 10.3633 81.8891 10.41 81.6891 10.41C81.5157 10.41 81.3691 10.3667 81.2491 10.28C81.1291 10.1867 81.0324 10.08 80.9591 9.96L80.5191 9.17ZM94.3853 15.34C94.6653 15.68 94.9686 15.92 95.2953 16.06C95.6286 16.2 95.9786 16.27 96.3453 16.27C96.7253 16.27 97.0653 16.2033 97.3653 16.07C97.672 15.93 97.932 15.7167 98.1453 15.43C98.3586 15.1367 98.522 14.7667 98.6353 14.32C98.7486 13.8667 98.8053 13.3267 98.8053 12.7C98.8053 11.5733 98.6186 10.76 98.2453 10.26C97.872 9.75333 97.3353 9.5 96.6353 9.5C96.162 9.5 95.7486 9.61 95.3953 9.83C95.042 10.0433 94.7053 10.3467 94.3853 10.74V15.34ZM94.3853 9C94.7986 8.56667 95.2553 8.22333 95.7553 7.97C96.262 7.71 96.8386 7.58 97.4853 7.58C98.0786 7.58 98.612 7.69667 99.0853 7.93C99.5653 8.16333 99.972 8.5 100.305 8.94C100.645 9.37333 100.905 9.9 101.085 10.52C101.265 11.14 101.355 11.8367 101.355 12.61C101.355 13.4433 101.252 14.2 101.045 14.88C100.839 15.56 100.542 16.1433 100.155 16.63C99.7753 17.11 99.3153 17.4833 98.7753 17.75C98.2353 18.0167 97.6353 18.15 96.9753 18.15C96.6553 18.15 96.3653 18.1167 96.1053 18.05C95.8453 17.99 95.6053 17.9033 95.3853 17.79C95.1653 17.6767 94.962 17.54 94.7753 17.38C94.5953 17.2133 94.422 17.03 94.2553 16.83L94.1453 17.52C94.1053 17.6933 94.0353 17.8167 93.9353 17.89C93.842 17.9633 93.712 18 93.5453 18H91.9153V3.14H94.3853V9ZM110.523 9.74C110.456 9.84667 110.386 9.92333 110.313 9.97C110.24 10.01 110.146 10.03 110.033 10.03C109.913 10.03 109.783 9.99667 109.643 9.93C109.51 9.86333 109.353 9.79 109.173 9.71C108.993 9.62333 108.786 9.54667 108.553 9.48C108.326 9.41333 108.056 9.38 107.743 9.38C107.256 9.38 106.873 9.48333 106.593 9.69C106.32 9.89667 106.183 10.1667 106.183 10.5C106.183 10.72 106.253 10.9067 106.393 11.06C106.54 11.2067 106.73 11.3367 106.963 11.45C107.203 11.5633 107.473 11.6667 107.773 11.76C108.073 11.8467 108.376 11.9433 108.683 12.05C108.996 12.1567 109.303 12.28 109.603 12.42C109.903 12.5533 110.17 12.7267 110.403 12.94C110.643 13.1467 110.833 13.3967 110.973 13.69C111.12 13.9833 111.193 14.3367 111.193 14.75C111.193 15.2433 111.103 15.7 110.923 16.12C110.75 16.5333 110.49 16.8933 110.143 17.2C109.796 17.5 109.366 17.7367 108.853 17.91C108.346 18.0767 107.76 18.16 107.093 18.16C106.74 18.16 106.393 18.1267 106.053 18.06C105.72 18 105.396 17.9133 105.083 17.8C104.776 17.6867 104.49 17.5533 104.223 17.4C103.963 17.2467 103.733 17.08 103.533 16.9L104.103 15.96C104.176 15.8467 104.263 15.76 104.363 15.7C104.463 15.64 104.59 15.61 104.743 15.61C104.896 15.61 105.04 15.6533 105.173 15.74C105.313 15.8267 105.473 15.92 105.653 16.02C105.833 16.12 106.043 16.2133 106.283 16.3C106.53 16.3867 106.84 16.43 107.213 16.43C107.506 16.43 107.756 16.3967 107.963 16.33C108.176 16.2567 108.35 16.1633 108.483 16.05C108.623 15.9367 108.723 15.8067 108.783 15.66C108.85 15.5067 108.883 15.35 108.883 15.19C108.883 14.95 108.81 14.7533 108.663 14.6C108.523 14.4467 108.333 14.3133 108.093 14.2C107.86 14.0867 107.59 13.9867 107.283 13.9C106.983 13.8067 106.673 13.7067 106.353 13.6C106.04 13.4933 105.73 13.37 105.423 13.23C105.123 13.0833 104.853 12.9 104.613 12.68C104.38 12.46 104.19 12.19 104.043 11.87C103.903 11.55 103.833 11.1633 103.833 10.71C103.833 10.29 103.916 9.89 104.083 9.51C104.25 9.13 104.493 8.8 104.813 8.52C105.14 8.23333 105.543 8.00667 106.023 7.84C106.51 7.66667 107.07 7.58 107.703 7.58C108.41 7.58 109.053 7.69667 109.633 7.93C110.213 8.16333 110.696 8.47 111.083 8.85L110.523 9.74Z" fill="white"/>
</svg>
