<svg width="20" height="21" viewBox="0 0 20 21" fill="none" xmlns="http://www.w3.org/2000/svg">
<path d="M10 0.8125C15.3125 0.8125 19.6875 5.1875 19.6875 10.5C19.6875 15.8516 15.3125 20.1875 10 20.1875C4.64844 20.1875 0.3125 15.8516 0.3125 10.5C0.3125 5.1875 4.64844 0.8125 10 0.8125ZM16.3672 5.30469C16.2109 5.53906 14.8438 7.29688 11.7578 8.54688C12.0703 9.17188 12.2656 9.64062 12.5 10.1875C15.2344 9.83594 17.9688 10.3828 18.2422 10.4609C18.2422 8.50781 17.5391 6.71094 16.3672 5.30469ZM15.4688 4.32812C13.4375 2.53125 10.6641 1.86719 8.04688 2.49219C8.28125 2.80469 9.76562 4.83594 11.1328 7.33594C14.0625 6.24219 15.3125 4.5625 15.4688 4.32812ZM6.44531 3.03906C4.14062 4.13281 2.42188 6.28125 1.875 8.82031C2.26562 8.85938 5.66406 8.85938 9.53125 7.84375C8.16406 5.38281 6.67969 3.35156 6.44531 3.03906ZM1.71875 10.5391C1.71875 12.6484 2.5 14.6016 3.82812 16.0469C5.15625 13.7812 7.89062 11.3594 10.8984 10.5C10.6641 10.0312 10.4688 9.5625 10.1953 9.09375C6.09375 10.3438 2.07031 10.3047 1.71875 10.2656C1.71875 10.3828 1.71875 10.4609 1.71875 10.5391ZM4.88281 17.0625C7.34375 18.9766 10.5469 19.2891 13.2031 18.1562C13.0859 17.4141 12.6172 14.875 11.4453 11.8672C8.125 13 5.78125 15.3047 4.88281 17.0625ZM14.6094 17.375C16.4453 16.125 17.7734 14.1328 18.1641 11.8281C17.8516 11.75 15.5859 11.0859 13.0078 11.4766C14.0625 14.4844 14.5312 16.9062 14.6094 17.375Z" fill="white"/>
</svg>
